<?xml version="1.0" encoding="utf-8" ?><svg xmlns="http://www.w3.org/2000/svg" xmlns:xlink="http://www.w3.org/1999/xlink" width="1024" height="1024" viewBox="0 0 1024 1024"><path fill="#3A5E74" transform="scale(2 2)" d="M260.026 138.116C269.768 138.231 274.368 143.494 275.744 152.713C292.48 157.071 301.353 155.082 315.149 170.347C323.529 179.62 330.442 196.994 329.333 209.62C332.406 209.599 342.16 208.322 341.784 213.046C340.979 223.178 331.744 234.326 321.619 236.253C316 237.322 306.646 236.834 300.73 236.835L261.703 236.826L221.275 236.827C201.592 236.837 186.213 238.277 180.724 213.295C182.497 207.609 188.13 209.203 193.002 209.62C195.274 173.345 210.841 158.965 246.28 152.713C243.433 145.331 252.808 138.695 260.026 138.116ZM323.5 209.62C323.949 195.645 318.8 182.312 309.056 172.339C295.464 158.427 277.146 158.227 258.976 158.005C224.976 157.588 198.67 172.947 198.8 209.62C202.063 209.597 205.339 209.551 208.601 209.62C213.206 187.224 250.581 182.693 261.096 209.62C262.189 209.907 273.68 209.626 275.601 209.625L323.5 209.62ZM329.333 225.878C332.834 222.21 334.315 219.865 335.701 215.013C324.202 215.333 311.124 215.014 299.519 215.013L200.616 215.006C197.077 214.998 190.544 214.774 187.227 215.013C185.195 220.02 197.739 231.089 205.725 231.142L296.813 231.099C309.324 231.099 319.079 233.486 329.333 225.878ZM270.186 152.713C270.269 151.769 270.216 150.886 270.186 149.941C268.174 150.447 267.826 150.863 266.958 152.713L270.186 152.713Z"/><path fill="#FA8A50" transform="scale(2 2)" d="M216.068 181.944C218.687 182.075 224.206 187.241 219.464 189.904C215.926 190.274 211.848 184.175 216.068 181.944Z"/><path fill="#FA8A50" transform="scale(2 2)" d="M249.989 180.655C255.892 181.403 252.605 186.736 249.989 189.113C243.832 188.642 247.286 182.901 249.989 180.655Z"/><path fill="#FA8A50" transform="scale(2 2)" d="M261.703 191.727C268.362 191.604 265.873 196.374 261.096 198.513C255.065 198.246 259.561 193.788 261.703 191.727Z"/><path fill="#FA8A50" transform="scale(2 2)" d="M232.725 177.481C236.738 177.442 237.608 183.664 234.655 185.61C230.727 185.344 229.199 179.261 232.725 177.481Z"/><path fill="#FA8A50" transform="scale(2 2)" d="M204.363 195.184C207.956 196.386 211.694 197.452 208.601 201.81C205.18 200.934 201.201 199.063 204.363 195.184Z"/><path fill="#FA8A50" transform="scale(2 2)" d="M208.601 209.62C213.206 187.224 250.581 182.693 261.096 209.62C256.4 209.357 248.693 209.609 243.779 209.61L208.601 209.62Z"/><path fill="#FA8A50" transform="scale(2 2)" d="M251.383 152.713C254.094 141.454 263.899 141.007 270.186 149.941C268.174 150.447 267.826 150.863 266.958 152.713L251.383 152.713Z"/><path fill="#367A7F" transform="scale(2 2)" d="M120.86 242.554C127.298 242.555 128.222 245.632 128.926 251.106C132.167 276.321 135.821 301.636 137.891 326.967C138.434 333.615 125.728 334.102 124.604 327.746C123.684 322.539 123.423 317.272 122.833 311.995L120.816 293.512C120.238 288.021 119.659 283.855 119.75 278.296C115.238 289.438 111.177 305.375 108.063 317.062C104.956 325.472 95.3256 322.066 94.1668 319.107C89.3579 306.828 86.6555 293.381 82.1812 281.006C81.6054 283.633 81.1433 288.244 80.7794 291.057C79.5402 303.163 78.125 315.317 76.5583 327.381C75.6558 334.331 62.5432 333.868 63.2778 325.823C63.7087 321.105 64.323 316.461 64.9078 311.759L70.8955 262.859C72.0015 253.841 70.453 239.937 82.7696 243.298C87.3327 244.543 96.2655 284.78 100.47 294.495L100.633 294.865C104.55 282.638 107.762 270.128 111.884 257.946C114.171 251.188 113.489 244.073 120.86 242.554Z"/><path fill="#367A7F" transform="scale(2 2)" d="M144.298 265.595C150.858 265.144 151.745 268.953 153.013 274.35C156.007 287.095 160.337 306.875 165.033 318.945C167.152 304.3 171.147 286.238 174.085 271.38C175.578 263.828 183.718 264.07 187.227 270.124C187.391 275.298 185.143 284.089 184.053 289.512L178.184 318.945L172.087 351.401C171.044 357.207 170.208 363.271 168.73 368.929C167.305 374.382 158.94 373.022 156.276 368.56C155.524 352.706 162.457 353.222 156.838 334.816C150.804 315.053 144.735 295.328 139.317 275.381C138.012 270.577 139.086 266.806 144.298 265.595Z"/><path fill="#367A7F" transform="scale(2 2)" d="M384.184 264.826C404.037 260.717 419.774 307.033 373.596 307.268C378.395 334.886 403.064 298.194 402.746 319.568C398.959 336.091 361.67 339.017 360.054 306.142C359.315 291.099 365.56 265.589 384.184 264.826ZM380.642 293.75C395.572 290.036 390.472 277.788 383.271 278.296C378.315 280.917 376.463 285.247 374.823 290.361C373.211 295.389 376.922 293.996 380.642 293.75Z"/><path fill="#367A7F" transform="scale(2 2)" d="M218.346 244.593C239.578 242.792 251.859 277.447 236.505 277.744C229.96 277.73 230.242 269.628 228.009 264.707C224.828 257.701 218.039 256.741 213.04 263.052C195.831 285.53 210.364 335.841 229.05 313.101C231.429 310.322 231.994 309.598 235.483 308.624C250.716 312.135 235.793 330.642 223.538 331.79C180.305 335.843 183.455 248.282 218.346 244.593Z"/><path fill="#367A7F" transform="scale(2 2)" d="M338.867 264.826C356.952 262.079 364.869 286.677 351.625 300.309C345.291 306.829 337.085 307.223 328.552 307.268C335.114 333.514 356.411 299.365 357.842 318.945C356.622 333.534 319.523 340.681 315.74 308.476C313.696 291.071 319.125 267.721 338.867 264.826ZM329.333 293.75C331.933 294.118 333.096 294.155 335.701 293.75C348.979 292.015 346.206 278.667 338.867 278.296C332.564 281.283 330.731 287.427 329.333 293.75Z"/><path fill="#367A7F" transform="scale(2 2)" d="M263.162 265.595C274.465 263.953 283.623 273.339 285.159 283.965C286.356 292.242 286.378 316.172 285.597 325.526C285.036 332.235 275.948 333.123 272.658 328.035C264.199 331.961 256.072 330.329 249.989 323.157C247.517 320.432 246.086 316.534 246.039 312.877C245.806 294.804 257.183 288.778 273.497 288.122C267.851 269.281 259.179 286.487 251.857 282.69C242.192 277.679 254.823 266.92 263.162 265.595ZM261.703 317.253C273.378 319.301 274.039 309.528 272.527 300.855L272.241 300.554L271.69 300.608C262.461 301.539 253.456 307.997 261.703 317.253Z"/><path fill="#367A7F" transform="scale(2 2)" d="M433.463 264.826C452.674 260.485 447.99 304.098 448.772 314.892C448.537 320.041 451 332.619 442.216 331.855C434.435 330.99 435.784 325.175 435.627 320.016C435.465 314.713 436.01 282.557 433.412 279.728L433.09 279.876C431.122 282.262 428.49 288.228 427.475 291.057C423.97 301.154 421.72 311.844 421.085 322.518C420.444 333.307 411.192 334.238 408.292 328.25C407.841 327.319 407.854 325.322 407.75 324.278L407.719 279.602C407.721 276.403 407.085 270.024 409.575 268.175C416.594 262.963 419.777 268.855 421.335 274.303C424.328 269.114 427.033 265.469 433.463 264.826Z"/><path fill="#367A7F" transform="scale(2 2)" d="M297.865 249.321C308.01 248.59 305.773 258.561 305.729 265.595C309.063 265.723 312.648 264.79 315.303 267.241C322.725 274.091 313.079 278.32 305.729 278.296L305.729 317.253C316.186 317.309 317.873 325.085 312.351 330.088C303.873 333.888 292.205 330.54 292.378 318.177C292.564 304.897 292.282 291.573 292.417 278.296C287.593 278.485 285.925 276.495 284.569 272.189C285.996 266.897 287.32 266.404 292.417 264.826C292.338 258.423 290.719 251.805 297.865 249.321Z"/></svg>